<mxfile host="app.diagrams.net" modified="2023-09-14T12:48:58.314Z" agent="Mozilla/5.0 (Windows NT 10.0; Win64; x64) AppleWebKit/537.36 (KHTML, like Gecko) Chrome/116.0.0.0 Safari/537.36" etag="0u0nGyTXyHPlWfNBnTe7" version="21.7.5" type="device">
  <diagram name="Page-1" id="7mtVzTTOBYI2G8BQVfxg">
    <mxGraphModel dx="1105" dy="562" grid="1" gridSize="10" guides="1" tooltips="1" connect="1" arrows="1" fold="1" page="1" pageScale="1" pageWidth="1169" pageHeight="827" math="0" shadow="0">
      <root>
        <mxCell id="0" />
        <mxCell id="1" parent="0" />
        <mxCell id="Qi_ysnakL4LZavWDNcfG-1" value="" style="shape=table;childLayout=tableLayout;startSize=80;collapsible=0;recursiveResize=0;expand=0;fontSize=16;align=center;fillColor=#b1ddf0;labelBorderColor=none;strokeColor=#10739e;" vertex="1" parent="1">
          <mxGeometry x="80" y="80" width="800" height="542" as="geometry" />
        </mxCell>
        <mxCell id="Qi_ysnakL4LZavWDNcfG-2" value="Actor 1" style="shape=tableRow;horizontal=0;swimlaneHead=0;swimlaneBody=0;top=0;left=0;strokeColor=inherit;bottom=0;right=0;dropTarget=0;fontStyle=0;fillColor=default;points=[[0,0.5],[1,0.5]];portConstraint=eastwest;startSize=40;collapsible=0;recursiveResize=0;expand=0;fontSize=16;" vertex="1" parent="Qi_ysnakL4LZavWDNcfG-1">
          <mxGeometry y="80" width="800" height="107" as="geometry" />
        </mxCell>
        <mxCell id="Qi_ysnakL4LZavWDNcfG-3" value="Task" style="swimlane;swimlaneHead=0;swimlaneBody=0;fontStyle=0;strokeColor=#0e8088;connectable=0;fillColor=#b0e3e6;startSize=40;collapsible=0;recursiveResize=0;expand=0;fontSize=16;" vertex="1" parent="Qi_ysnakL4LZavWDNcfG-2">
          <mxGeometry x="40" width="190" height="107" as="geometry">
            <mxRectangle width="190" height="107" as="alternateBounds" />
          </mxGeometry>
        </mxCell>
        <mxCell id="Qi_ysnakL4LZavWDNcfG-14" value="&lt;font style=&quot;font-size: 14px;&quot;&gt;No.&lt;/font&gt;" style="rounded=0;whiteSpace=wrap;html=1;fillColor=#b0e3e6;strokeColor=#0e8088;" vertex="1" parent="Qi_ysnakL4LZavWDNcfG-3">
          <mxGeometry x="-40" width="40" height="40" as="geometry" />
        </mxCell>
        <mxCell id="Qi_ysnakL4LZavWDNcfG-74" value="Planning" style="text;html=1;align=center;verticalAlign=middle;resizable=0;points=[];autosize=1;strokeColor=none;fillColor=none;fontSize=15;fontStyle=1" vertex="1" parent="Qi_ysnakL4LZavWDNcfG-3">
          <mxGeometry x="40" y="60" width="90" height="30" as="geometry" />
        </mxCell>
        <mxCell id="Qi_ysnakL4LZavWDNcfG-23" value="June" style="swimlane;swimlaneHead=0;swimlaneBody=0;fontStyle=0;strokeColor=#0e8088;connectable=0;fillColor=#b0e3e6;startSize=40;collapsible=0;recursiveResize=0;expand=0;fontSize=16;" vertex="1" parent="Qi_ysnakL4LZavWDNcfG-2">
          <mxGeometry x="230" width="143" height="107" as="geometry">
            <mxRectangle width="143" height="107" as="alternateBounds" />
          </mxGeometry>
        </mxCell>
        <mxCell id="Qi_ysnakL4LZavWDNcfG-81" value="" style="rounded=1;whiteSpace=wrap;html=1;fillColor=#fa6800;fontColor=#000000;strokeColor=#C73500;" vertex="1" parent="Qi_ysnakL4LZavWDNcfG-23">
          <mxGeometry y="50" width="110" height="20" as="geometry" />
        </mxCell>
        <mxCell id="Qi_ysnakL4LZavWDNcfG-82" value="" style="rounded=1;whiteSpace=wrap;html=1;fillColor=#008a00;fontColor=#ffffff;strokeColor=#005700;" vertex="1" parent="Qi_ysnakL4LZavWDNcfG-23">
          <mxGeometry y="80" width="150" height="20" as="geometry" />
        </mxCell>
        <mxCell id="Qi_ysnakL4LZavWDNcfG-4" value="July" style="swimlane;swimlaneHead=0;swimlaneBody=0;fontStyle=0;strokeColor=#0e8088;connectable=0;fillColor=#b0e3e6;startSize=40;collapsible=0;recursiveResize=0;expand=0;fontSize=16;" vertex="1" parent="Qi_ysnakL4LZavWDNcfG-2">
          <mxGeometry x="373" width="147" height="107" as="geometry">
            <mxRectangle width="147" height="107" as="alternateBounds" />
          </mxGeometry>
        </mxCell>
        <mxCell id="Qi_ysnakL4LZavWDNcfG-5" value="August" style="swimlane;swimlaneHead=0;swimlaneBody=0;fontStyle=0;strokeColor=#0e8088;connectable=0;fillColor=#b0e3e6;startSize=40;collapsible=0;recursiveResize=0;expand=0;fontSize=16;" vertex="1" parent="Qi_ysnakL4LZavWDNcfG-2">
          <mxGeometry x="520" width="138" height="107" as="geometry">
            <mxRectangle width="138" height="107" as="alternateBounds" />
          </mxGeometry>
        </mxCell>
        <mxCell id="Qi_ysnakL4LZavWDNcfG-19" value="Saptember" style="swimlane;swimlaneHead=0;swimlaneBody=0;fontStyle=0;strokeColor=#0e8088;connectable=0;fillColor=#b0e3e6;startSize=40;collapsible=0;recursiveResize=0;expand=0;fontSize=16;" vertex="1" parent="Qi_ysnakL4LZavWDNcfG-2">
          <mxGeometry x="658" width="142" height="107" as="geometry">
            <mxRectangle width="142" height="107" as="alternateBounds" />
          </mxGeometry>
        </mxCell>
        <mxCell id="Qi_ysnakL4LZavWDNcfG-6" value="Actor 2" style="shape=tableRow;horizontal=0;swimlaneHead=0;swimlaneBody=0;top=0;left=0;strokeColor=inherit;bottom=0;right=0;dropTarget=0;fontStyle=0;fillColor=none;points=[[0,0.5],[1,0.5]];portConstraint=eastwest;startSize=40;collapsible=0;recursiveResize=0;expand=0;fontSize=16;" vertex="1" parent="Qi_ysnakL4LZavWDNcfG-1">
          <mxGeometry y="187" width="800" height="70" as="geometry" />
        </mxCell>
        <mxCell id="Qi_ysnakL4LZavWDNcfG-7" value="" style="swimlane;swimlaneHead=0;swimlaneBody=0;fontStyle=0;connectable=0;strokeColor=inherit;fillColor=default;startSize=0;collapsible=0;recursiveResize=0;expand=0;fontSize=16;" vertex="1" parent="Qi_ysnakL4LZavWDNcfG-6">
          <mxGeometry x="40" width="190" height="70" as="geometry">
            <mxRectangle width="190" height="70" as="alternateBounds" />
          </mxGeometry>
        </mxCell>
        <mxCell id="Qi_ysnakL4LZavWDNcfG-76" value="Analysis" style="text;html=1;align=center;verticalAlign=middle;resizable=0;points=[];autosize=1;strokeColor=none;fillColor=none;fontSize=15;fontStyle=1" vertex="1" parent="Qi_ysnakL4LZavWDNcfG-7">
          <mxGeometry x="40" y="20" width="90" height="30" as="geometry" />
        </mxCell>
        <mxCell id="Qi_ysnakL4LZavWDNcfG-24" style="swimlane;swimlaneHead=0;swimlaneBody=0;fontStyle=0;connectable=0;strokeColor=inherit;fillColor=default;startSize=0;collapsible=0;recursiveResize=0;expand=0;fontSize=16;" vertex="1" parent="Qi_ysnakL4LZavWDNcfG-6">
          <mxGeometry x="230" width="143" height="70" as="geometry">
            <mxRectangle width="143" height="70" as="alternateBounds" />
          </mxGeometry>
        </mxCell>
        <mxCell id="Qi_ysnakL4LZavWDNcfG-8" value="" style="swimlane;swimlaneHead=0;swimlaneBody=0;fontStyle=0;connectable=0;strokeColor=inherit;fillColor=default;startSize=0;collapsible=0;recursiveResize=0;expand=0;fontSize=16;" vertex="1" parent="Qi_ysnakL4LZavWDNcfG-6">
          <mxGeometry x="373" width="147" height="70" as="geometry">
            <mxRectangle width="147" height="70" as="alternateBounds" />
          </mxGeometry>
        </mxCell>
        <mxCell id="Qi_ysnakL4LZavWDNcfG-83" value="" style="rounded=1;whiteSpace=wrap;html=1;fillColor=#fa6800;fontColor=#000000;strokeColor=#C73500;" vertex="1" parent="Qi_ysnakL4LZavWDNcfG-8">
          <mxGeometry x="-53" y="10" width="103" height="20" as="geometry" />
        </mxCell>
        <mxCell id="Qi_ysnakL4LZavWDNcfG-84" value="" style="rounded=1;whiteSpace=wrap;html=1;fillColor=#008a00;fontColor=#ffffff;strokeColor=#005700;" vertex="1" parent="Qi_ysnakL4LZavWDNcfG-8">
          <mxGeometry x="-53" y="40" width="123" height="20" as="geometry" />
        </mxCell>
        <mxCell id="Qi_ysnakL4LZavWDNcfG-9" value="" style="swimlane;swimlaneHead=0;swimlaneBody=0;fontStyle=0;connectable=0;strokeColor=inherit;fillColor=default;startSize=0;collapsible=0;recursiveResize=0;expand=0;fontSize=16;" vertex="1" parent="Qi_ysnakL4LZavWDNcfG-6">
          <mxGeometry x="520" width="138" height="70" as="geometry">
            <mxRectangle width="138" height="70" as="alternateBounds" />
          </mxGeometry>
        </mxCell>
        <mxCell id="Qi_ysnakL4LZavWDNcfG-20" style="swimlane;swimlaneHead=0;swimlaneBody=0;fontStyle=0;connectable=0;strokeColor=#0e8088;fillColor=#B0E3E6;startSize=0;collapsible=0;recursiveResize=0;expand=0;fontSize=16;" vertex="1" parent="Qi_ysnakL4LZavWDNcfG-6">
          <mxGeometry x="658" width="142" height="70" as="geometry">
            <mxRectangle width="142" height="70" as="alternateBounds" />
          </mxGeometry>
        </mxCell>
        <mxCell id="Qi_ysnakL4LZavWDNcfG-10" value="Actor 3" style="shape=tableRow;horizontal=0;swimlaneHead=0;swimlaneBody=0;top=0;left=0;strokeColor=inherit;bottom=0;right=0;dropTarget=0;fontStyle=0;fillColor=none;points=[[0,0.5],[1,0.5]];portConstraint=eastwest;startSize=40;collapsible=0;recursiveResize=0;expand=0;fontSize=16;" vertex="1" parent="Qi_ysnakL4LZavWDNcfG-1">
          <mxGeometry y="257" width="800" height="72" as="geometry" />
        </mxCell>
        <mxCell id="Qi_ysnakL4LZavWDNcfG-11" value="" style="swimlane;swimlaneHead=0;swimlaneBody=0;fontStyle=0;connectable=0;strokeColor=inherit;fillColor=default;startSize=0;collapsible=0;recursiveResize=0;expand=0;fontSize=16;" vertex="1" parent="Qi_ysnakL4LZavWDNcfG-10">
          <mxGeometry x="40" width="190" height="72" as="geometry">
            <mxRectangle width="190" height="72" as="alternateBounds" />
          </mxGeometry>
        </mxCell>
        <mxCell id="Qi_ysnakL4LZavWDNcfG-77" value="Design" style="text;html=1;align=center;verticalAlign=middle;resizable=0;points=[];autosize=1;strokeColor=none;fillColor=none;fontSize=15;fontStyle=1" vertex="1" parent="Qi_ysnakL4LZavWDNcfG-11">
          <mxGeometry x="50" y="21" width="70" height="30" as="geometry" />
        </mxCell>
        <mxCell id="Qi_ysnakL4LZavWDNcfG-25" style="swimlane;swimlaneHead=0;swimlaneBody=0;fontStyle=0;connectable=0;strokeColor=inherit;fillColor=default;startSize=0;collapsible=0;recursiveResize=0;expand=0;fontSize=16;" vertex="1" parent="Qi_ysnakL4LZavWDNcfG-10">
          <mxGeometry x="230" width="143" height="72" as="geometry">
            <mxRectangle width="143" height="72" as="alternateBounds" />
          </mxGeometry>
        </mxCell>
        <mxCell id="Qi_ysnakL4LZavWDNcfG-12" value="" style="swimlane;swimlaneHead=0;swimlaneBody=0;fontStyle=0;connectable=0;strokeColor=inherit;fillColor=default;startSize=0;collapsible=0;recursiveResize=0;expand=0;fontSize=16;" vertex="1" parent="Qi_ysnakL4LZavWDNcfG-10">
          <mxGeometry x="373" width="147" height="72" as="geometry">
            <mxRectangle width="147" height="72" as="alternateBounds" />
          </mxGeometry>
        </mxCell>
        <mxCell id="Qi_ysnakL4LZavWDNcfG-85" value="" style="rounded=1;whiteSpace=wrap;html=1;fillColor=#fa6800;fontColor=#000000;strokeColor=#C73500;" vertex="1" parent="Qi_ysnakL4LZavWDNcfG-12">
          <mxGeometry x="27" y="13" width="103" height="20" as="geometry" />
        </mxCell>
        <mxCell id="Qi_ysnakL4LZavWDNcfG-86" value="" style="rounded=1;whiteSpace=wrap;html=1;fillColor=#008a00;fontColor=#ffffff;strokeColor=#005700;" vertex="1" parent="Qi_ysnakL4LZavWDNcfG-12">
          <mxGeometry x="27" y="43" width="123" height="20" as="geometry" />
        </mxCell>
        <mxCell id="Qi_ysnakL4LZavWDNcfG-13" value="" style="swimlane;swimlaneHead=0;swimlaneBody=0;fontStyle=0;connectable=0;strokeColor=inherit;fillColor=default;startSize=0;collapsible=0;recursiveResize=0;expand=0;fontSize=16;" vertex="1" parent="Qi_ysnakL4LZavWDNcfG-10">
          <mxGeometry x="520" width="138" height="72" as="geometry">
            <mxRectangle width="138" height="72" as="alternateBounds" />
          </mxGeometry>
        </mxCell>
        <mxCell id="Qi_ysnakL4LZavWDNcfG-21" style="swimlane;swimlaneHead=0;swimlaneBody=0;fontStyle=0;connectable=0;strokeColor=inherit;fillColor=default;startSize=0;collapsible=0;recursiveResize=0;expand=0;fontSize=16;" vertex="1" parent="Qi_ysnakL4LZavWDNcfG-10">
          <mxGeometry x="658" width="142" height="72" as="geometry">
            <mxRectangle width="142" height="72" as="alternateBounds" />
          </mxGeometry>
        </mxCell>
        <mxCell id="Qi_ysnakL4LZavWDNcfG-15" style="shape=tableRow;horizontal=0;swimlaneHead=0;swimlaneBody=0;top=0;left=0;strokeColor=inherit;bottom=0;right=0;dropTarget=0;fontStyle=0;fillColor=none;points=[[0,0.5],[1,0.5]];portConstraint=eastwest;startSize=40;collapsible=0;recursiveResize=0;expand=0;fontSize=16;" vertex="1" parent="Qi_ysnakL4LZavWDNcfG-1">
          <mxGeometry y="329" width="800" height="71" as="geometry" />
        </mxCell>
        <mxCell id="Qi_ysnakL4LZavWDNcfG-16" style="swimlane;swimlaneHead=0;swimlaneBody=0;fontStyle=0;connectable=0;strokeColor=inherit;fillColor=default;startSize=0;collapsible=0;recursiveResize=0;expand=0;fontSize=16;" vertex="1" parent="Qi_ysnakL4LZavWDNcfG-15">
          <mxGeometry x="40" width="190" height="71" as="geometry">
            <mxRectangle width="190" height="71" as="alternateBounds" />
          </mxGeometry>
        </mxCell>
        <mxCell id="Qi_ysnakL4LZavWDNcfG-78" value="Coding" style="text;html=1;align=center;verticalAlign=middle;resizable=0;points=[];autosize=1;strokeColor=none;fillColor=none;fontSize=15;fontStyle=1" vertex="1" parent="Qi_ysnakL4LZavWDNcfG-16">
          <mxGeometry x="45" y="20.5" width="80" height="30" as="geometry" />
        </mxCell>
        <mxCell id="Qi_ysnakL4LZavWDNcfG-26" style="swimlane;swimlaneHead=0;swimlaneBody=0;fontStyle=0;connectable=0;strokeColor=inherit;fillColor=default;startSize=0;collapsible=0;recursiveResize=0;expand=0;fontSize=16;" vertex="1" parent="Qi_ysnakL4LZavWDNcfG-15">
          <mxGeometry x="230" width="143" height="71" as="geometry">
            <mxRectangle width="143" height="71" as="alternateBounds" />
          </mxGeometry>
        </mxCell>
        <mxCell id="Qi_ysnakL4LZavWDNcfG-17" style="swimlane;swimlaneHead=0;swimlaneBody=0;fontStyle=0;connectable=0;strokeColor=inherit;fillColor=default;startSize=0;collapsible=0;recursiveResize=0;expand=0;fontSize=16;" vertex="1" parent="Qi_ysnakL4LZavWDNcfG-15">
          <mxGeometry x="373" width="147" height="71" as="geometry">
            <mxRectangle width="147" height="71" as="alternateBounds" />
          </mxGeometry>
        </mxCell>
        <mxCell id="Qi_ysnakL4LZavWDNcfG-18" style="swimlane;swimlaneHead=0;swimlaneBody=0;fontStyle=0;connectable=0;strokeColor=inherit;fillColor=default;startSize=0;collapsible=0;recursiveResize=0;expand=0;fontSize=16;" vertex="1" parent="Qi_ysnakL4LZavWDNcfG-15">
          <mxGeometry x="520" width="138" height="71" as="geometry">
            <mxRectangle width="138" height="71" as="alternateBounds" />
          </mxGeometry>
        </mxCell>
        <mxCell id="Qi_ysnakL4LZavWDNcfG-87" value="" style="rounded=1;whiteSpace=wrap;html=1;fillColor=#fa6800;fontColor=#000000;strokeColor=#C73500;" vertex="1" parent="Qi_ysnakL4LZavWDNcfG-18">
          <mxGeometry x="-30" y="11" width="110" height="20" as="geometry" />
        </mxCell>
        <mxCell id="Qi_ysnakL4LZavWDNcfG-88" value="" style="rounded=1;whiteSpace=wrap;html=1;fillColor=#008a00;fontColor=#ffffff;strokeColor=#005700;" vertex="1" parent="Qi_ysnakL4LZavWDNcfG-18">
          <mxGeometry x="-30" y="41" width="160" height="20" as="geometry" />
        </mxCell>
        <mxCell id="Qi_ysnakL4LZavWDNcfG-22" style="swimlane;swimlaneHead=0;swimlaneBody=0;fontStyle=0;connectable=0;strokeColor=inherit;fillColor=default;startSize=0;collapsible=0;recursiveResize=0;expand=0;fontSize=16;" vertex="1" parent="Qi_ysnakL4LZavWDNcfG-15">
          <mxGeometry x="658" width="142" height="71" as="geometry">
            <mxRectangle width="142" height="71" as="alternateBounds" />
          </mxGeometry>
        </mxCell>
        <mxCell id="Qi_ysnakL4LZavWDNcfG-63" style="shape=tableRow;horizontal=0;swimlaneHead=0;swimlaneBody=0;top=0;left=0;strokeColor=inherit;bottom=0;right=0;dropTarget=0;fontStyle=0;fillColor=none;points=[[0,0.5],[1,0.5]];portConstraint=eastwest;startSize=40;collapsible=0;recursiveResize=0;expand=0;fontSize=16;" vertex="1" parent="Qi_ysnakL4LZavWDNcfG-1">
          <mxGeometry y="400" width="800" height="71" as="geometry" />
        </mxCell>
        <mxCell id="Qi_ysnakL4LZavWDNcfG-64" style="swimlane;swimlaneHead=0;swimlaneBody=0;fontStyle=0;connectable=0;strokeColor=inherit;fillColor=default;startSize=0;collapsible=0;recursiveResize=0;expand=0;fontSize=16;" vertex="1" parent="Qi_ysnakL4LZavWDNcfG-63">
          <mxGeometry x="40" width="190" height="71" as="geometry">
            <mxRectangle width="190" height="71" as="alternateBounds" />
          </mxGeometry>
        </mxCell>
        <mxCell id="Qi_ysnakL4LZavWDNcfG-79" value="Testing" style="text;html=1;align=center;verticalAlign=middle;resizable=0;points=[];autosize=1;strokeColor=none;fillColor=none;fontSize=15;fontStyle=1" vertex="1" parent="Qi_ysnakL4LZavWDNcfG-64">
          <mxGeometry x="45" y="20.5" width="80" height="30" as="geometry" />
        </mxCell>
        <mxCell id="Qi_ysnakL4LZavWDNcfG-65" style="swimlane;swimlaneHead=0;swimlaneBody=0;fontStyle=0;connectable=0;strokeColor=inherit;fillColor=default;startSize=0;collapsible=0;recursiveResize=0;expand=0;fontSize=16;" vertex="1" parent="Qi_ysnakL4LZavWDNcfG-63">
          <mxGeometry x="230" width="143" height="71" as="geometry">
            <mxRectangle width="143" height="71" as="alternateBounds" />
          </mxGeometry>
        </mxCell>
        <mxCell id="Qi_ysnakL4LZavWDNcfG-66" style="swimlane;swimlaneHead=0;swimlaneBody=0;fontStyle=0;connectable=0;strokeColor=inherit;fillColor=default;startSize=0;collapsible=0;recursiveResize=0;expand=0;fontSize=16;" vertex="1" parent="Qi_ysnakL4LZavWDNcfG-63">
          <mxGeometry x="373" width="147" height="71" as="geometry">
            <mxRectangle width="147" height="71" as="alternateBounds" />
          </mxGeometry>
        </mxCell>
        <mxCell id="Qi_ysnakL4LZavWDNcfG-67" style="swimlane;swimlaneHead=0;swimlaneBody=0;fontStyle=0;connectable=0;strokeColor=inherit;fillColor=default;startSize=0;collapsible=0;recursiveResize=0;expand=0;fontSize=16;" vertex="1" parent="Qi_ysnakL4LZavWDNcfG-63">
          <mxGeometry x="520" width="138" height="71" as="geometry">
            <mxRectangle width="138" height="71" as="alternateBounds" />
          </mxGeometry>
        </mxCell>
        <mxCell id="Qi_ysnakL4LZavWDNcfG-89" value="" style="rounded=1;whiteSpace=wrap;html=1;fillColor=#fa6800;fontColor=#000000;strokeColor=#C73500;" vertex="1" parent="Qi_ysnakL4LZavWDNcfG-67">
          <mxGeometry x="47" y="10.5" width="103" height="20" as="geometry" />
        </mxCell>
        <mxCell id="Qi_ysnakL4LZavWDNcfG-90" value="" style="rounded=1;whiteSpace=wrap;html=1;fillColor=#008a00;fontColor=#ffffff;strokeColor=#005700;" vertex="1" parent="Qi_ysnakL4LZavWDNcfG-67">
          <mxGeometry x="47" y="40.5" width="150" height="20" as="geometry" />
        </mxCell>
        <mxCell id="Qi_ysnakL4LZavWDNcfG-68" style="swimlane;swimlaneHead=0;swimlaneBody=0;fontStyle=0;connectable=0;strokeColor=#0e8088;fillColor=#b0e3e6;startSize=0;collapsible=0;recursiveResize=0;expand=0;fontSize=16;" vertex="1" parent="Qi_ysnakL4LZavWDNcfG-63">
          <mxGeometry x="658" width="142" height="71" as="geometry">
            <mxRectangle width="142" height="71" as="alternateBounds" />
          </mxGeometry>
        </mxCell>
        <mxCell id="Qi_ysnakL4LZavWDNcfG-57" style="shape=tableRow;horizontal=0;swimlaneHead=0;swimlaneBody=0;top=0;left=0;strokeColor=inherit;bottom=0;right=0;dropTarget=0;fontStyle=0;fillColor=none;points=[[0,0.5],[1,0.5]];portConstraint=eastwest;startSize=40;collapsible=0;recursiveResize=0;expand=0;fontSize=16;" vertex="1" parent="Qi_ysnakL4LZavWDNcfG-1">
          <mxGeometry y="471" width="800" height="71" as="geometry" />
        </mxCell>
        <mxCell id="Qi_ysnakL4LZavWDNcfG-58" style="swimlane;swimlaneHead=0;swimlaneBody=0;fontStyle=0;connectable=0;strokeColor=inherit;fillColor=default;startSize=0;collapsible=0;recursiveResize=0;expand=0;fontSize=16;" vertex="1" parent="Qi_ysnakL4LZavWDNcfG-57">
          <mxGeometry x="40" width="190" height="71" as="geometry">
            <mxRectangle width="190" height="71" as="alternateBounds" />
          </mxGeometry>
        </mxCell>
        <mxCell id="Qi_ysnakL4LZavWDNcfG-80" value="Implementaion" style="text;html=1;align=center;verticalAlign=middle;resizable=0;points=[];autosize=1;strokeColor=none;fillColor=none;fontSize=15;fontStyle=1" vertex="1" parent="Qi_ysnakL4LZavWDNcfG-58">
          <mxGeometry x="30" y="20" width="130" height="30" as="geometry" />
        </mxCell>
        <mxCell id="Qi_ysnakL4LZavWDNcfG-59" style="swimlane;swimlaneHead=0;swimlaneBody=0;fontStyle=0;connectable=0;strokeColor=inherit;fillColor=default;startSize=0;collapsible=0;recursiveResize=0;expand=0;fontSize=16;" vertex="1" parent="Qi_ysnakL4LZavWDNcfG-57">
          <mxGeometry x="230" width="143" height="71" as="geometry">
            <mxRectangle width="143" height="71" as="alternateBounds" />
          </mxGeometry>
        </mxCell>
        <mxCell id="Qi_ysnakL4LZavWDNcfG-60" style="swimlane;swimlaneHead=0;swimlaneBody=0;fontStyle=0;connectable=0;strokeColor=inherit;fillColor=default;startSize=0;collapsible=0;recursiveResize=0;expand=0;fontSize=16;" vertex="1" parent="Qi_ysnakL4LZavWDNcfG-57">
          <mxGeometry x="373" width="147" height="71" as="geometry">
            <mxRectangle width="147" height="71" as="alternateBounds" />
          </mxGeometry>
        </mxCell>
        <mxCell id="Qi_ysnakL4LZavWDNcfG-61" style="swimlane;swimlaneHead=0;swimlaneBody=0;fontStyle=0;connectable=0;strokeColor=inherit;fillColor=default;startSize=0;collapsible=0;recursiveResize=0;expand=0;fontSize=16;" vertex="1" parent="Qi_ysnakL4LZavWDNcfG-57">
          <mxGeometry x="520" width="138" height="71" as="geometry">
            <mxRectangle width="138" height="71" as="alternateBounds" />
          </mxGeometry>
        </mxCell>
        <mxCell id="Qi_ysnakL4LZavWDNcfG-62" style="swimlane;swimlaneHead=0;swimlaneBody=0;fontStyle=0;connectable=0;strokeColor=#0e8088;fillColor=#b0e3e6;startSize=0;collapsible=0;recursiveResize=0;expand=0;fontSize=16;" vertex="1" parent="Qi_ysnakL4LZavWDNcfG-57">
          <mxGeometry x="658" width="142" height="71" as="geometry">
            <mxRectangle width="142" height="71" as="alternateBounds" />
          </mxGeometry>
        </mxCell>
        <mxCell id="Qi_ysnakL4LZavWDNcfG-91" value="" style="rounded=1;whiteSpace=wrap;html=1;fillColor=#fa6800;fontColor=#000000;strokeColor=#C73500;" vertex="1" parent="Qi_ysnakL4LZavWDNcfG-62">
          <mxGeometry x="-8" y="10.5" width="98" height="20" as="geometry" />
        </mxCell>
        <mxCell id="Qi_ysnakL4LZavWDNcfG-92" value="" style="rounded=1;whiteSpace=wrap;html=1;fillColor=#008a00;fontColor=#ffffff;strokeColor=#005700;" vertex="1" parent="Qi_ysnakL4LZavWDNcfG-62">
          <mxGeometry x="-8" y="40.5" width="150" height="20" as="geometry" />
        </mxCell>
        <mxCell id="Qi_ysnakL4LZavWDNcfG-36" value="" style="line;strokeWidth=2;html=1;rotation=90;" vertex="1" parent="1">
          <mxGeometry x="561" y="115" width="80" height="10" as="geometry" />
        </mxCell>
        <mxCell id="Qi_ysnakL4LZavWDNcfG-47" value="&lt;font style=&quot;font-size: 14px;&quot;&gt;1&lt;br&gt;&lt;/font&gt;" style="rounded=0;whiteSpace=wrap;html=1;fillColor=#b0e3e6;strokeColor=#0e8088;" vertex="1" parent="1">
          <mxGeometry x="80" y="200" width="40" height="70" as="geometry" />
        </mxCell>
        <mxCell id="Qi_ysnakL4LZavWDNcfG-48" value="&lt;font style=&quot;font-size: 14px;&quot;&gt;2&lt;br&gt;&lt;/font&gt;" style="rounded=0;whiteSpace=wrap;html=1;fillColor=#b0e3e6;strokeColor=#0e8088;" vertex="1" parent="1">
          <mxGeometry x="80" y="267" width="40" height="70" as="geometry" />
        </mxCell>
        <mxCell id="Qi_ysnakL4LZavWDNcfG-49" value="&lt;font style=&quot;font-size: 14px;&quot;&gt;3&lt;br&gt;&lt;/font&gt;" style="rounded=0;whiteSpace=wrap;html=1;fillColor=#b0e3e6;strokeColor=#0e8088;" vertex="1" parent="1">
          <mxGeometry x="80" y="338" width="40" height="74" as="geometry" />
        </mxCell>
        <mxCell id="Qi_ysnakL4LZavWDNcfG-50" value="&lt;font style=&quot;font-size: 14px;&quot;&gt;4&lt;br&gt;&lt;/font&gt;" style="rounded=0;whiteSpace=wrap;html=1;fillColor=#b0e3e6;strokeColor=#0e8088;" vertex="1" parent="1">
          <mxGeometry x="80" y="410" width="40" height="70" as="geometry" />
        </mxCell>
        <mxCell id="Qi_ysnakL4LZavWDNcfG-69" value="" style="group" vertex="1" connectable="0" parent="1">
          <mxGeometry x="682" y="87" width="185" height="61" as="geometry" />
        </mxCell>
        <mxCell id="Qi_ysnakL4LZavWDNcfG-30" value="" style="rounded=1;whiteSpace=wrap;html=1;fillColor=#fa6800;fontColor=#000000;strokeColor=#C73500;" vertex="1" parent="Qi_ysnakL4LZavWDNcfG-69">
          <mxGeometry y="5" width="80" height="20" as="geometry" />
        </mxCell>
        <mxCell id="Qi_ysnakL4LZavWDNcfG-31" value="" style="rounded=1;whiteSpace=wrap;html=1;fillColor=#008a00;fontColor=#ffffff;strokeColor=#005700;" vertex="1" parent="Qi_ysnakL4LZavWDNcfG-69">
          <mxGeometry y="36" width="80" height="20" as="geometry" />
        </mxCell>
        <mxCell id="Qi_ysnakL4LZavWDNcfG-32" value="Expected Time" style="text;html=1;align=center;verticalAlign=middle;resizable=0;points=[];autosize=1;strokeColor=none;fillColor=none;fontSize=12;" vertex="1" parent="Qi_ysnakL4LZavWDNcfG-69">
          <mxGeometry x="80" width="100" height="30" as="geometry" />
        </mxCell>
        <mxCell id="Qi_ysnakL4LZavWDNcfG-34" value="Actual Time" style="text;html=1;align=center;verticalAlign=middle;resizable=0;points=[];autosize=1;strokeColor=none;fillColor=none;fontSize=12;" vertex="1" parent="Qi_ysnakL4LZavWDNcfG-69">
          <mxGeometry x="85" y="31" width="90" height="30" as="geometry" />
        </mxCell>
        <mxCell id="Qi_ysnakL4LZavWDNcfG-72" value="&lt;font style=&quot;font-size: 14px;&quot;&gt;5&lt;br&gt;&lt;/font&gt;" style="rounded=0;whiteSpace=wrap;html=1;fillColor=#b0e3e6;strokeColor=#0e8088;" vertex="1" parent="1">
          <mxGeometry x="80" y="480" width="40" height="70" as="geometry" />
        </mxCell>
        <mxCell id="Qi_ysnakL4LZavWDNcfG-73" value="&lt;font style=&quot;font-size: 14px;&quot;&gt;6&lt;br&gt;&lt;/font&gt;" style="rounded=0;whiteSpace=wrap;html=1;fillColor=#b0e3e6;strokeColor=#0e8088;" vertex="1" parent="1">
          <mxGeometry x="80" y="551" width="40" height="70" as="geometry" />
        </mxCell>
        <mxCell id="Qi_ysnakL4LZavWDNcfG-95" value="Krishna Tourism Management" style="text;html=1;align=center;verticalAlign=middle;resizable=0;points=[];autosize=1;strokeColor=none;fillColor=none;fontSize=17;fontStyle=1" vertex="1" parent="1">
          <mxGeometry x="155" y="105" width="270" height="30" as="geometry" />
        </mxCell>
      </root>
    </mxGraphModel>
  </diagram>
</mxfile>
